<?xml version="1.0" encoding="UTF-8" standalone="no"?>
<svg
   version="1.1"
   id="Layer_1"
   x="0px"
   y="0px"
   width="412.17123"
   viewBox="0 0 412.171 463.39488"
   enable-background="new 0 0 1024 1024"
   xml:space="preserve"
   sodipodi:docname="logo.svg"
   height="463.39514"
   inkscape:version="1.3.2 (091e20ef0f, 2023-11-25, custom)"
   xmlns:inkscape="http://www.inkscape.org/namespaces/inkscape"
   xmlns:sodipodi="http://sodipodi.sourceforge.net/DTD/sodipodi-0.dtd"
   xmlns="http://www.w3.org/2000/svg"
   xmlns:svg="http://www.w3.org/2000/svg"><defs
   id="defs11"><inkscape:path-effect
     effect="fillet_chamfer"
     id="path-effect12"
     is_visible="true"
     lpeversion="1"
     nodesatellites_param="F,0,0,1,0,0,0,1 @ F,0,0,1,0,0,0,1 @ F,0,0,1,0,0,0,1 @ F,0,0,1,0,0,0,1 @ F,0,0,1,0,0,0,1"
     radius="5"
     unit="mm"
     method="auto"
     mode="F"
     chamfer_steps="1"
     flexible="false"
     use_knot_distance="true"
     apply_no_radius="true"
     apply_with_radius="true"
     only_selected="false"
     hide_knots="false" /></defs><sodipodi:namedview
   id="namedview11"
   pagecolor="#ffffff"
   bordercolor="#404040"
   borderopacity="1"
   inkscape:showpageshadow="0"
   inkscape:pageopacity="0"
   inkscape:pagecheckerboard="0"
   inkscape:deskcolor="#838383"
   showgrid="false"
   inkscape:zoom="0.75435272"
   inkscape:cx="275.73308"
   inkscape:cy="86.829408"
   inkscape:window-width="1862"
   inkscape:window-height="980"
   inkscape:window-x="26"
   inkscape:window-y="68"
   inkscape:window-maximized="1"
   inkscape:current-layer="Layer_1" />
<path
   fill="#000000"
   opacity="1"
   stroke="none"
   d="M 30.323536,310.29766 C 13.768946,284.04644 4.0103363,255.86645 1.0348463,225.28664 -4.2595037,170.87569 10.860376,122.62136 44.106196,79.58199 77.512106,36.3354 121.55645,10.55021 175.12377,2.5395097 c 62.41102,-9.3332 118.25678,7.09517 166.04199,48.6973003 36.4556,31.73868 59.5803,71.57907 67.788,119.259 9.0302,52.45844 -0.8397,101.35199 -30.9765,145.70096 -1.0971,1.6145 -1.9141,3.55249 -4.0833,4.48267 -4.1073,-3.97278 -8.343,-7.88581 -12.3473,-12.02277 -1.9128,-1.97619 0.035,-3.72156 1.0857,-5.30582 10.9652,-16.52862 19.2337,-34.27236 23.8731,-53.59359 12.4891,-52.01117 4.0733,-100.64804 -25.0488,-145.30942 C 336.36936,65.97433 301.26641,40.1359 257.06231,27.64086 205.00927,12.92719 155.389,19.59193 109.14675,47.88595 62.877466,76.19653 34.449756,117.5779 23.515526,170.39846 c -9.72336,46.97092 -0.95255,91.04199 25.25763,131.32697 3.16864,4.87021 2.72766,7.75119 -1.23612,11.37332 -2.91153,2.66064 -5.2326,5.96741 -7.90576,9.08996 -4.70282,-3.83648 -6.50213,-8.0285 -9.30774,-11.89105 z"
   id="path1"
   style="fill:#b7cbb3;fill-opacity:1" />
<path
   fill="#000000"
   opacity="1"
   stroke="none"
   d="m 196.18359,393.24035 c 0.015,-41.14807 -0.0218,-81.79633 0.12433,-122.44394 0.0148,-4.1264 -1.01523,-7.23849 -3.94812,-10.21078 -19.41629,-19.67731 -38.4798,-39.70569 -58.61338,-58.66504 -2.68429,-2.52777 -4.19973,-5.32624 -2.36337,-8.84482 1.478,-2.83185 -0.20566,-4.71857 -1.39428,-6.87326 -9.61667,-17.43238 2.22058,-38.66028 21.8475,-39.20166 11.87958,-0.3277 22.61166,7.67279 26.0329,19.40686 3.2716,11.22082 -1.73865,23.53747 -12.0922,29.6759 -1.55337,0.92093 -3.15683,1.75729 -5.56418,3.09091 11.15464,12.89484 23.40311,24.00006 34.80011,35.96601 1.78925,-1.45981 1.14664,-3.06934 1.1482,-4.44342 0.0353,-31.15247 -0.0384,-62.30521 0.0881,-93.45716 0.0153,-3.76297 -1.11471,-5.94058 -4.40787,-7.98044 -9.9027,-6.13391 -14.40438,-18.13507 -11.46334,-29.06246 2.91494,-10.83048 12.46698,-18.87424 22.89852,-19.28287 13.2205,-0.51789 23.0687,5.712 27.40433,17.33569 3.94306,10.57129 0.24402,23.57498 -9.35321,29.62134 -4.66119,2.93661 -5.76947,6.23843 -5.7644,11.35947 0.10327,105.28512 0.043,210.5704 0.0139,315.85568 -4.2e-4,1.49921 -0.0454,2.99878 -0.0219,4.49743 0.0433,2.75745 -1.35968,3.94275 -4.0329,3.79987 -0.16601,-0.009 -0.33331,0.008 -0.49969,0.002 -17.40912,-0.55145 -14.65897,2.7995 -14.80115,-14.17224 -0.15488,-18.48999 -0.037,-36.9823 -0.0379,-55.97357 m 14.24139,-276.24976 c 0.8393,-0.54 1.75269,-0.99304 2.50586,-1.63424 4.75196,-4.04578 5.58203,-9.87079 2.14734,-14.72614 -3.64099,-5.14697 -9.54706,-6.40378 -14.96319,-3.18414 -4.73362,2.81396 -6.71033,8.38766 -4.75107,13.39645 2.20096,5.62668 7.40631,7.97327 15.06106,6.14807 m -52.93112,46.36725 c -6.5433,-1.97085 -10.5488,-1.04376 -13.78589,3.35901 -2.85138,3.87814 -2.9436,8.07028 -0.54831,12.11398 2.52784,4.26743 6.46674,6.04978 11.41819,5.24967 4.97808,-0.80435 8.09549,-3.8855 9.14529,-8.64527 1.13211,-5.13299 -1.24918,-8.97222 -6.22928,-12.07739 z"
   id="path2"
   style="fill:#0e7164;fill-opacity:1" />

<path
   fill="#000000"
   opacity="1"
   stroke="none"
   d="m 353.82356,371.23303 c -3.0402,10.62799 -9.7218,17.28454 -20.1221,19.08776 -11.4732,1.98914 -21.1506,-1.60992 -27.36235,-12.05865 -1.58356,-2.66388 -3.59296,-3.67468 -6.51154,-3.63648 -4.49872,0.059 -9.01636,0.23884 -13.49371,-0.0825 -4.56336,-0.32745 -5.61469,1.67212 -5.59058,5.87238 0.14423,25.16388 0.064,50.32898 0.0626,75.49371 -4.2e-4,7.43555 0.004,7.48291 -7.53491,7.36268 -11.88452,-0.18952 -11.15204,2.35473 -11.15106,-11.18457 0.004,-49.3296 -0.048,-98.65925 0.0504,-147.98865 0.008,-4.03931 -0.93066,-6.58618 -4.69091,-8.85553 -11.1839,-6.74964 -15.21082,-19.74646 -10.47614,-31.76883 4.21259,-10.69693 16.30621,-17.83597 27.21002,-16.06269 13.45197,2.18775 23.13672,12.40567 23.30719,25.37906 0.13001,9.89627 -4.33514,17.71613 -12.97235,22.71015 -2.65155,1.53311 -3.81079,3.12939 -3.78687,6.21527 0.12684,16.33099 0.19367,32.6651 -0.0152,48.99426 -0.0568,4.44721 1.7735,5.64057 5.69293,5.05145 0.49384,-0.0742 1.01373,-0.22558 1.48767,-0.14416 9.89972,1.70117 16.96893,-1.31836 23.64701,-9.62592 7.0535,-8.77447 20.0694,-9.01574 29.8579,-3.27612 10.1076,5.9267 14.8133,16.53839 12.3921,28.5174 m -17.7351,2.27948 c 4.3148,-4.98236 5.0837,-8.95191 2.6189,-13.51966 -2.2726,-4.21154 -7.1483,-6.81927 -11.5774,-6.1922 -5.036,0.71302 -8.9329,4.19464 -9.9018,9.18738 -0.869,4.47797 0.7373,8.30096 4.311,10.93573 4.4976,3.31586 9.286,2.91821 14.5493,-0.41125 M 269.31127,262.31966 c -7.20544,1.94843 -11.21838,8.37781 -9.02526,14.45978 2.29748,6.3711 9.06195,9.39902 15.37884,6.88382 4.67487,-1.86142 7.86023,-7.2865 6.99445,-11.91257 -1.17023,-6.25344 -4.97998,-9.14801 -13.34803,-9.43103 z"
   id="path4"
   style="fill:#0e7164;fill-opacity:1" />
<path
   fill="#000000"
   opacity="1"
   stroke="none"
   d="m 130.5386,287.92999 c -5.77698,-10.36325 -5.40921,-20.24219 1.54623,-29.33625 6.38056,-8.34243 15.19266,-11.94455 25.59894,-9.77978 10.72043,2.2301 17.62515,9.03824 20.40891,19.66281 2.60498,9.94229 -1.39337,21.03836 -10.04731,26.832 -3.56146,2.38434 -4.52236,5.02518 -4.51355,9.05344 0.11081,50.47519 0.0667,100.95071 0.0728,151.42611 9.2e-4,7.60999 0.0257,7.60993 -7.85053,7.47992 -11.42526,-0.18866 -11.44955,-0.18866 -11.45532,-11.90326 -0.0241,-48.80932 -0.0647,-97.61871 0.0162,-146.42785 0.006,-3.84742 -0.56638,-6.58264 -4.6073,-8.24668 -3.89932,-1.60571 -6.70075,-4.85723 -9.16913,-8.76046 m 30.34116,-5.75333 c 4.85546,-6.43411 4.10391,-13.21542 -1.90778,-17.21396 -5.27484,-3.50842 -12.87848,-1.68918 -16.01825,3.83255 -2.44821,4.30551 -1.57516,10.20212 2.03162,13.7218 4.17752,4.07663 9.28393,4.13047 15.89441,-0.34039 z"
   id="path5"
   style="fill:#0e7164;fill-opacity:1" />

<path
   fill="#000000"
   opacity="1"
   stroke="none"
   d="m 125.38528,143.19225 c -6.60819,8.47617 -11.88409,17.31153 -14.97699,27.28031 -1.08169,3.48645 -2.82648,4.41888 -6.27866,3.42682 -3.664,-1.05298 -7.449734,-1.70026 -11.202114,-2.42188 -3.16605,-0.60889 -4.08448,-2.08151 -2.95157,-5.28772 9.8602,-27.9057 27.923494,-49.20529 52.301054,-65.51642 1.98313,-1.3269 3.6915,-1.18872 5.56467,-0.18981 3.97604,2.12029 6.83307,5.16357 8.20224,9.57794 1.20508,3.88537 0.31583,6.69195 -3.298,8.85745 -10.52271,6.30542 -19.53727,14.36371 -27.36063,24.27331 z"
   id="path7"
   style="fill:#96b6a4;fill-opacity:1" />
<path
   fill="#000000"
   opacity="1"
   stroke="none"
   d="m 234.35424,176.96056 c -2.43756,-13.87957 3.75843,-25.39752 15.9538,-30.23446 11.45648,-4.54395 24.81909,-0.14832 31.51324,10.36615 6.54535,10.28085 4.84357,23.91415 -3.89782,32.54498 -12.456,12.29855 -37.54285,9.07263 -43.56922,-12.67667 m 14.56855,-9.37207 c -0.95056,5.1496 -0.0538,9.70444 4.59252,12.76603 3.62702,2.38989 7.56434,2.46939 11.41004,0.53036 4.34033,-2.18841 6.87366,-7.24463 6.04803,-11.62982 -0.86969,-4.61923 -5.14965,-8.77792 -9.82348,-9.54508 -4.61676,-0.75778 -9.12647,1.9361 -12.22711,7.87851 z"
   id="path8"
   style="fill:#96b6a4;fill-opacity:1" />
<path
   fill="#000000"
   opacity="1"
   stroke="none"
   d="m 65.099086,347.96166 c 8.11587,-8.19549 17.28961,-11.01257 28.04898,-7.17358 10.295624,3.67358 16.099184,11.29114 17.200954,21.89545 1.06409,10.24163 -3.1654,18.5885 -11.837284,24.29675 -10.17651,6.69867 -24.28744,4.96496 -32.52578,-3.74542 -9.45163,-9.99317 -9.8769,-23.16089 -0.88687,-35.2732 m 14.00796,7.33704 c -5.41214,3.78204 -7.1391,8.20264 -5.28958,13.54016 1.66009,4.79077 5.89499,7.55274 11.1962,7.30206 5.45227,-0.25769 9.42895,-3.51251 10.70279,-8.7434 1.73349,-7.11835 -5.75403,-16.56293 -16.60941,-12.09882 z"
   id="path9"
   style="fill:#0e7164;fill-opacity:1" />
<path
   fill="#000000"
   opacity="1"
   stroke="none"
   d="m 297.05456,151.07958 c -2.10431,0.35907 -3.02057,-0.97467 -4.10333,-1.95862 -11.4466,-10.40228 -21.77014,-22.04461 -34.53827,-30.99413 -3.41998,-2.39716 -3.27136,-5.99347 -1.84027,-9.47956 1.58966,-3.87262 4.7027,-6.35425 8.24353,-8.39889 2.15375,-1.24366 3.98553,-1.08158 5.92706,0.52255 12.85315,10.6192 24.64771,22.38315 36.73478,33.83124 2.357,2.23233 2.6953,4.25174 -0.018,6.63769 -3.49595,3.07422 -6.72385,6.45319 -10.40574,9.83972 z"
   id="path10"
   style="fill:#96b6a4;fill-opacity:1" />
<path
   fill="#000000"
   opacity="1"
   stroke="none"
   d="m 98.402576,217.25283 c 4.555334,3.92874 8.869084,7.59641 13.128944,11.32559 1.22482,1.07224 2.83511,2.23221 1.27966,4.13883 -5.75055,7.04876 -12.3583,13.22571 -19.602904,20.34552 -5.10227,-15.12302 -7.55265,-29.2301 -6.74848,-44.88898 4.98227,2.62616 8.14841,5.99188 11.94278,9.07904 z"
   id="path11"
   style="fill:#96b6a4;fill-opacity:1" />
<path
   style="fill:none;fill-opacity:0.488304;stroke:#b7cbb3;stroke-width:19.5364;stroke-dasharray:none;stroke-opacity:1"
   id="path12"
   sodipodi:type="arc"
   sodipodi:cx="899.24268"
   sodipodi:cy="458.07809"
   sodipodi:rx="152.57796"
   sodipodi:ry="151.44867"
   d="m 805.57835,577.63175 c -51.44796,-39.71246 -71.80344,-107.47687 -50.66648,-168.67127 21.13696,-61.19439 79.09907,-102.30633 144.27252,-102.33104 65.17345,-0.0247 123.16721,41.04325 144.35121,102.2216 21.1841,61.17835 0.8808,128.95818 -50.5366,168.70965"
   sodipodi:arc-type="arc"
   sodipodi:open="true"
   sodipodi:start="2.2317608"
   sodipodi:end="0.90906784"
   inkscape:path-effect="#path-effect12"
   transform="translate(-693.26714,-252.97195)" /></svg>
